<svg width="46" height="53" viewBox="0 0 46 53" fill="none" xmlns="http://www.w3.org/2000/svg">
<g filter="url(#filter0_ddddd_4116_31)">
<path d="M40.475 16.5036C39.8018 15.8001 39.1054 15.0751 38.8429 14.4376C38.6 13.8536 38.5857 12.8858 38.5714 11.9483C38.5446 10.2054 38.5161 8.23042 37.1429 6.8572C35.7696 5.48399 33.7946 5.45542 32.0518 5.42863C31.1143 5.41435 30.1464 5.40006 29.5625 5.1572C28.9268 4.8947 28.2 4.19827 27.4964 3.52506C26.2643 2.34113 24.8643 1.00006 23 1.00006C21.1357 1.00006 19.7375 2.34113 18.5036 3.52506C17.8 4.19827 17.075 4.8947 16.4375 5.1572C15.8571 5.40006 14.8857 5.41435 13.9482 5.42863C12.2054 5.45542 10.2304 5.48399 8.85714 6.8572C7.48393 8.23042 7.46428 10.2054 7.42857 11.9483C7.41428 12.8858 7.4 13.8536 7.15714 14.4376C6.89464 15.0733 6.19821 15.8001 5.525 16.5036C4.34107 17.7358 3 19.1358 3 21.0001C3 22.8643 4.34107 24.2626 5.525 25.4965C6.19821 26.2001 6.89464 26.9251 7.15714 27.5626C7.4 28.1465 7.41428 29.1143 7.42857 30.0518C7.45536 31.7947 7.48393 33.7697 8.85714 35.1429C10.2304 36.5161 12.2054 36.5447 13.9482 36.5715C14.8857 36.5858 15.8536 36.6001 16.4375 36.8429C17.0732 37.1054 17.8 37.8018 18.5036 38.4751C19.7357 39.659 21.1357 41.0001 23 41.0001C24.8643 41.0001 26.2625 39.659 27.4964 38.4751C28.2 37.8018 28.925 37.1054 29.5625 36.8429C30.1464 36.6001 31.1143 36.5858 32.0518 36.5715C33.7946 36.5447 35.7696 36.5161 37.1429 35.1429C38.5161 33.7697 38.5446 31.7947 38.5714 30.0518C38.5857 29.1143 38.6 28.1465 38.8429 27.5626C39.1054 26.9268 39.8018 26.2001 40.475 25.4965C41.6589 24.2643 43 22.8643 43 21.0001C43 19.1358 41.6589 17.7376 40.475 16.5036ZM31.1536 17.7251L21.1536 27.7251C21.0209 27.8579 20.8633 27.9633 20.6899 28.0351C20.5165 28.107 20.3306 28.144 20.1429 28.144C19.9551 28.144 19.7692 28.107 19.5958 28.0351C19.4224 27.9633 19.2648 27.8579 19.1321 27.7251L14.8464 23.4393C14.5784 23.1713 14.4278 22.8077 14.4278 22.4286C14.4278 22.0495 14.5784 21.686 14.8464 21.4179C15.1145 21.1499 15.4781 20.9993 15.8571 20.9993C16.2362 20.9993 16.5998 21.1499 16.8679 21.4179L20.1429 24.6947L29.1321 15.7036C29.2649 15.5709 29.4224 15.4656 29.5959 15.3938C29.7693 15.322 29.9551 15.285 30.1429 15.285C30.3306 15.285 30.5164 15.322 30.6898 15.3938C30.8633 15.4656 31.0208 15.5709 31.1536 15.7036C31.2863 15.8364 31.3916 15.9939 31.4634 16.1674C31.5352 16.3408 31.5722 16.5266 31.5722 16.7143C31.5722 16.9021 31.5352 17.0879 31.4634 17.2613C31.3916 17.4348 31.2863 17.5923 31.1536 17.7251Z" fill="#45B442"/>
<path d="M39.7534 17.196L39.7525 17.195L39.7262 17.1675C39.4025 16.8293 39.0458 16.4565 38.737 16.0864C38.4269 15.7146 38.1084 15.2802 37.9182 14.8183C37.736 14.3785 37.6626 13.8646 37.6248 13.4079C37.5865 12.9436 37.5788 12.441 37.5719 11.9862L37.5715 11.9636C37.5715 11.9636 37.5715 11.9636 37.5715 11.9635C37.5434 10.1303 37.4746 8.60316 36.4357 7.56431C35.3969 6.52546 33.8697 6.45669 32.0365 6.42852C32.0365 6.42852 32.0365 6.42851 32.0364 6.42851L32.0137 6.42817C31.559 6.42125 31.0564 6.4136 30.5922 6.37523C30.1348 6.33743 29.6199 6.26388 29.1797 6.08102C28.7197 5.89085 28.286 5.57294 27.9145 5.26321C27.5409 4.95173 27.1646 4.5916 26.8235 4.26524L26.8051 4.24758L26.8036 4.24614C25.5041 2.9975 24.3933 2.00006 23 2.00006C21.6067 2.00006 20.4982 2.99713 19.1959 4.24664L19.1949 4.24758L19.1675 4.27383C18.8292 4.59752 18.4565 4.95425 18.0864 5.26301C17.7153 5.5726 17.2818 5.89046 16.8209 6.08078C16.3813 6.26416 15.8657 6.33754 15.4091 6.37524C14.9446 6.41358 14.4414 6.42124 13.9869 6.42816L13.9636 6.42851C13.9635 6.42851 13.9635 6.42852 13.9634 6.42852C12.1303 6.45669 10.6031 6.52546 9.56425 7.56431C8.52596 8.6026 8.46619 10.1242 8.42841 11.9662C8.4284 11.967 8.42838 11.9679 8.42836 11.9688L8.42811 11.9864C8.42119 12.4411 8.41354 12.9437 8.37517 13.4079C8.33737 13.8653 8.26382 14.3801 8.08096 14.8204C7.89078 15.2804 7.57288 15.714 7.26315 16.0855C6.95167 16.4591 6.59154 16.8355 6.26519 17.1765L6.24752 17.195L6.24608 17.1965C4.99744 18.496 4 19.6068 4 21.0001C4 22.3933 4.99707 23.5019 6.24657 24.8041L6.24752 24.8051L6.27377 24.8326C6.59745 25.1708 6.95419 25.5436 7.26295 25.9137C7.57313 26.2855 7.89162 26.7199 8.08182 27.1818C8.26404 27.6216 8.33743 28.1355 8.37517 28.5922C8.41354 29.0565 8.42119 29.559 8.42811 30.0137L8.42845 30.0365C8.42845 30.0365 8.42845 30.0366 8.42845 30.0366C8.45663 31.8698 8.5254 33.397 9.56425 34.4358C10.6031 35.4747 12.1303 35.5434 13.9634 35.5716C13.9635 35.5716 13.9635 35.5716 13.9636 35.5716L13.9862 35.5719C14.4409 35.5789 14.9435 35.5865 15.4078 35.6249C15.8652 35.6627 16.3801 35.7362 16.8203 35.9191M39.7534 17.196L16.4375 36.8429M39.7534 17.196C41.0029 18.4982 42 19.6068 42 21.0001C42 22.3933 41.0026 23.5041 39.7539 24.8036L39.7525 24.8051L39.7348 24.8236C39.4084 25.1647 39.0483 25.541 38.7368 25.9146C38.4271 26.2861 38.1092 26.7197 37.919 27.1797M39.7534 17.196L37.919 27.1797M16.8203 35.9191C16.8207 35.9193 16.8211 35.9194 16.8215 35.9196L16.4375 36.8429M16.8203 35.9191C16.8199 35.9189 16.8196 35.9188 16.8192 35.9186L16.4375 36.8429M16.8203 35.9191C17.2803 36.1093 17.714 36.4272 18.0855 36.7369C18.4591 37.0484 18.8354 37.4085 19.1765 37.7349L19.1949 37.7525L19.1964 37.754C20.4959 39.0026 21.6067 40.0001 23 40.0001C24.3933 40.0001 25.5018 39.003 26.8041 37.7535L26.8051 37.7525L26.8325 37.7263C27.1707 37.4026 27.5435 37.0459 27.9136 36.7371C28.2854 36.4269 28.7198 36.1084 29.1817 35.9182M16.4375 36.8429C17.0714 37.1047 17.7958 37.7978 18.4975 38.4692L18.5036 38.4751C19.7357 39.659 21.1357 41.0001 23 41.0001C24.8643 41.0001 26.2625 39.659 27.4964 38.4751L27.5126 38.4595C28.2111 37.7912 28.9299 37.1034 29.5625 36.8429M29.1817 35.9182C29.1807 35.9187 29.1796 35.9191 29.1785 35.9196L29.5625 36.8429M29.1817 35.9182L29.5625 36.8429M29.1817 35.9182C29.6216 35.736 30.1355 35.6626 30.5922 35.6249C31.0565 35.5865 31.5591 35.5789 32.0138 35.5719L32.0364 35.5716L32.0518 36.5715M29.5625 36.8429C30.1453 36.6005 31.1104 36.5858 32.0462 36.5716L32.0518 36.5715M32.0518 36.5715L32.0365 35.5716M32.0518 36.5715L32.0587 36.5714C33.7998 36.5446 35.7714 36.5143 37.1429 35.1429C38.5143 33.7715 38.5446 31.7999 38.5713 30.0587L38.5714 30.0518M32.0365 35.5716L40.475 16.5036C41.6589 17.7376 43 19.1358 43 21.0001C43 22.8643 41.6589 24.2643 40.475 25.4965L40.4692 25.5026C39.7978 26.2042 39.1046 26.9287 38.8429 27.5626M32.0365 35.5716C33.8697 35.5434 35.3969 35.4747 36.4357 34.4358C37.4746 33.397 37.5434 31.8698 37.5715 30.0366L38.5714 30.0518M32.0365 35.5716L37.5715 30.0365L38.5714 30.0518M38.5714 30.0518L38.5715 30.0463C38.5858 29.1105 38.6005 28.1453 38.8429 27.5626M38.8429 27.5626L37.9195 27.1785C37.9194 27.1789 37.9192 27.1793 37.919 27.1797M38.8429 27.5626L37.9186 27.1809C37.9187 27.1805 37.9189 27.1801 37.919 27.1797M17.5752 20.711L17.575 20.7108C17.1194 20.2552 16.5014 19.9993 15.8571 19.9993C15.2128 19.9993 14.5949 20.2552 14.1393 20.7108C13.6837 21.1664 13.4278 21.7843 13.4278 22.4286C13.4278 23.0729 13.6837 23.6909 14.1393 24.1465L18.4246 28.4318C18.6502 28.6576 18.918 28.8367 19.2129 28.9589C19.5077 29.0811 19.8237 29.144 20.1429 29.144C20.462 29.144 20.778 29.0811 21.0729 28.9589C21.3677 28.8367 21.6355 28.6576 21.8611 28.4318L31.8607 18.4322C32.0863 18.2066 32.2652 17.9388 32.3873 17.644C32.5094 17.3493 32.5722 17.0334 32.5722 16.7143C32.5722 16.3953 32.5094 16.0794 32.3873 15.7847C32.2652 15.4899 32.0863 15.2221 31.8607 14.9965C31.6351 14.7709 31.3673 14.592 31.0725 14.4699C30.7778 14.3478 30.4619 14.285 30.1429 14.285C29.8238 14.285 29.5079 14.3478 29.2132 14.4699C28.9184 14.592 28.6506 14.7709 28.425 14.9965L28.425 14.9966L20.143 23.2802L17.5752 20.711Z" stroke="white" stroke-width="2"/>
</g>
<defs>
<filter id="filter0_ddddd_4116_31" x="0" y="6.10948e-05" width="46" height="56" filterUnits="userSpaceOnUse" color-interpolation-filters="sRGB">
<feFlood flood-opacity="0" result="BackgroundImageFix"/>
<feColorMatrix in="SourceAlpha" type="matrix" values="0 0 0 0 0 0 0 0 0 0 0 0 0 0 0 0 0 0 127 0" result="hardAlpha"/>
<feOffset/>
<feGaussianBlur stdDeviation="0.5"/>
<feColorMatrix type="matrix" values="0 0 0 0 0 0 0 0 0 0 0 0 0 0 0 0 0 0 0.29 0"/>
<feBlend mode="normal" in2="BackgroundImageFix" result="effect1_dropShadow_4116_31"/>
<feColorMatrix in="SourceAlpha" type="matrix" values="0 0 0 0 0 0 0 0 0 0 0 0 0 0 0 0 0 0 127 0" result="hardAlpha"/>
<feOffset dy="2"/>
<feGaussianBlur stdDeviation="1"/>
<feColorMatrix type="matrix" values="0 0 0 0 0 0 0 0 0 0 0 0 0 0 0 0 0 0 0.26 0"/>
<feBlend mode="normal" in2="effect1_dropShadow_4116_31" result="effect2_dropShadow_4116_31"/>
<feColorMatrix in="SourceAlpha" type="matrix" values="0 0 0 0 0 0 0 0 0 0 0 0 0 0 0 0 0 0 127 0" result="hardAlpha"/>
<feOffset dy="4"/>
<feGaussianBlur stdDeviation="1.5"/>
<feColorMatrix type="matrix" values="0 0 0 0 0 0 0 0 0 0 0 0 0 0 0 0 0 0 0.15 0"/>
<feBlend mode="normal" in2="effect2_dropShadow_4116_31" result="effect3_dropShadow_4116_31"/>
<feColorMatrix in="SourceAlpha" type="matrix" values="0 0 0 0 0 0 0 0 0 0 0 0 0 0 0 0 0 0 127 0" result="hardAlpha"/>
<feOffset dy="8"/>
<feGaussianBlur stdDeviation="1.5"/>
<feColorMatrix type="matrix" values="0 0 0 0 0 0 0 0 0 0 0 0 0 0 0 0 0 0 0.04 0"/>
<feBlend mode="normal" in2="effect3_dropShadow_4116_31" result="effect4_dropShadow_4116_31"/>
<feColorMatrix in="SourceAlpha" type="matrix" values="0 0 0 0 0 0 0 0 0 0 0 0 0 0 0 0 0 0 127 0" result="hardAlpha"/>
<feOffset dy="12"/>
<feGaussianBlur stdDeviation="1.5"/>
<feColorMatrix type="matrix" values="0 0 0 0 0 0 0 0 0 0 0 0 0 0 0 0 0 0 0.01 0"/>
<feBlend mode="normal" in2="effect4_dropShadow_4116_31" result="effect5_dropShadow_4116_31"/>
<feBlend mode="normal" in="SourceGraphic" in2="effect5_dropShadow_4116_31" result="shape"/>
</filter>
</defs>
</svg>
